# xmcd
#
# Track frame offsets:
#	150
#	19150
#	30917
#	45010
#	56782
#	70580
#	85035
#	100255
#	115140
#	124675
#	143007
#	158585
#	172110
#	188450
#
# Disc length: 2717
#
# Revision: 1
# Processed by: cddbd v1.5.1PL0 Copyright (c) Steve Scherf et al.
# Submitted via: VisiTrax 2.9.5.180 - For more info visit www.synapsa.com
# Normalized: r0:DSETVAR1
#
DISCID=a10a9b0e
DTITLE=Various Artist - Mr Music Country 01-93
DYEAR=1993
DGENRE=Country
TTITLE0=Chriss LeDoux - This Cowboy's Hat
TTITLE1=Queen Bee and The Zydeco Amigos - Let's Say Goodnight
TTITLE2=Lee Greenwood with Tanya Tucker - We're Both To blame
TTITLE3=Larry Gatlin - Pretty woman Have Mercy
TTITLE4=Sharon Anderson - Pony
TTITLE5=Pirates Of The Mississippi - Don't Quit Your Day Job
TTITLE6=Paul david Wells - Sounds Good To me
TTITLE7=Jo-El Sonnier - Fire On The Line
TTITLE8=Barbara Mandrell - The key's In The Mailbox
TTITLE9=Lacy J. Dalton - Little Boy Blue
TTITLE10=Billy Dean - Only Here For A little While
TTITLE11=Curtis Wright - I Can't Stand To Watch My Old Flame Burn
TTITLE12=Tanya Tucker with Paul Overstreet and Paul Davis - I Won't Take Less Than Your Love
TTITLE13=Suzy Bogguss - Other Side Of The Hill
EXTD=
EXTT0=
EXTT1=
EXTT2=
EXTT3=
EXTT4=
EXTT5=
EXTT6=
EXTT7=
EXTT8=
EXTT9=
EXTT10=
EXTT11=
EXTT12=
EXTT13=
PLAYORDER=
